<svg width="88" height="88" viewBox="0 0 88 88" fill="none" xmlns="http://www.w3.org/2000/svg">
<circle opacity="0.3" cx="44" cy="44" r="44" fill="#FEC49E"/>
<path d="M46.0832 37.7498C46.0832 38.9004 45.1505 39.8332 43.9998 39.8332C42.8492 39.8332 41.9165 38.9004 41.9165 37.7498C41.9165 36.5992 42.8492 35.6665 43.9998 35.6665C45.1505 35.6665 46.0832 36.5992 46.0832 37.7498Z" fill="#FF6600"/>
<path d="M44 43.479C44.8629 43.479 45.5625 44.1786 45.5625 45.0415V55.4582C45.5625 56.3211 44.8629 57.0207 44 57.0207C43.1371 57.0207 42.4375 56.3211 42.4375 55.4582V45.0415C42.4375 44.1786 43.1371 43.479 44 43.479Z" fill="#FF6600"/>
<path fill-rule="evenodd" clip-rule="evenodd" d="M48.7297 27.3181C46.4549 23.9897 41.5449 23.9896 39.2699 27.3181L38.3701 28.6347C32.7325 36.883 27.8888 45.6468 23.904 54.8087L23.716 55.2408C22.3118 58.4695 24.4333 62.1356 27.9324 62.5266C38.6108 63.7202 49.3889 63.7202 60.0674 62.5266C63.5664 62.1356 65.688 58.4695 64.2837 55.2408L64.0957 54.8087C60.1109 45.6468 55.2672 36.8831 49.6297 28.6347L48.7297 27.3181ZM41.8499 29.0815C42.8839 27.5685 45.1157 27.5685 46.1499 29.0815L47.0497 30.398C52.5759 38.4835 57.3239 47.0741 61.2301 56.055L61.418 56.4873C61.9834 57.7873 61.1291 59.2635 59.7203 59.421C49.2726 60.5887 38.7272 60.5887 28.2795 59.421C26.8705 59.2635 26.0163 57.7873 26.5817 56.4873L26.7697 56.055C30.6758 47.0741 35.4238 38.4835 40.9501 30.398L41.8499 29.0815Z" fill="#FF6600" stroke="#FF6600"/>
</svg>
