<svg width="60" height="60" viewBox="0 0 60 60" fill="none" xmlns="http://www.w3.org/2000/svg">
<circle cx="30" cy="30" r="30" fill="white"/>
<path d="M10.7994 48.3848C10.7994 46.9772 12.0546 45.7877 13.726 45.6323C26.2696 44.4686 34.4071 44.5736 46.9231 45.6582C47.5481 45.7132 48.1405 45.9196 48.6279 46.2521C49.1152 46.5846 49.4765 47.0289 49.6676 47.5306C49.8586 48.0324 49.8712 48.5699 49.7037 49.0775C49.5363 49.5852 49.196 50.041 48.7246 50.3892C33.9535 61.1798 25.512 61.0313 11.84 50.4001C11.1734 49.8823 10.7994 49.1465 10.7994 48.3862V48.3848Z" fill="#3577D5"/>
<path fill-rule="evenodd" clip-rule="evenodd" d="M46.3825 47.083C34.0118 46.0228 26.0212 45.9235 13.6522 47.0575C13.245 47.0968 12.8697 47.2591 12.598 47.5134C12.3263 47.7677 12.1774 48.0961 12.1797 48.4357C12.1797 48.8195 12.3725 49.1831 12.6981 49.4354C19.4495 54.6235 24.565 56.9679 29.5654 56.9826C34.5836 56.9974 39.9744 54.6718 47.2799 49.3979C47.5119 49.2267 47.679 49.0034 47.7608 48.7551C47.8425 48.5068 47.8355 48.2441 47.7404 47.999C47.6454 47.754 47.4664 47.5371 47.2253 47.3747C46.9843 47.2123 46.6915 47.1114 46.3825 47.0843V47.083ZM13.2974 44.3897C25.9256 43.2315 34.1511 43.3362 46.7178 44.4138C47.6545 44.4948 48.5424 44.8003 49.2728 45.293C50.0032 45.7856 50.5444 46.444 50.8301 47.1875C51.1158 47.931 51.1336 48.7274 50.8814 49.4792C50.6291 50.2309 50.3737 51.1519 49.6658 51.6666C42.2551 57.0184 35.8277 59.6867 29.5557 59.6666C23.2659 59.6478 17.3664 56.6834 10.4967 51.4028C10.0049 51.0232 9.61278 50.5637 9.34494 50.053C9.0771 49.5422 8.93927 48.9912 8.94007 48.4343C8.93771 47.4338 9.381 46.4677 10.185 45.7211C10.989 44.9746 12.0973 44.5 13.2974 44.3883V44.3897Z" fill="#3577D5"/>
<path d="M40.9422 26.9425C40.9422 29.8446 39.7893 32.6279 37.7372 34.68C35.6851 36.7321 32.9018 37.8849 29.9997 37.8849C27.0976 37.8849 24.3143 36.7321 22.2622 34.68C20.2101 32.6279 19.0573 29.8446 19.0573 26.9425C19.0573 24.0403 20.2101 21.2571 22.2622 19.205C24.3143 17.1529 27.0976 16 29.9997 16C32.9018 16 35.6851 17.1529 37.7372 19.205C39.7893 21.2571 40.9422 24.0403 40.9422 26.9425Z" fill="#3577D5"/>
<path fill-rule="evenodd" clip-rule="evenodd" d="M29.9997 35.1493C32.1763 35.1493 34.2638 34.2847 35.8028 32.7456C37.3419 31.2065 38.2066 29.1191 38.2066 26.9425C38.2066 24.7659 37.3419 22.6784 35.8028 21.1394C34.2638 19.6003 32.1763 18.7356 29.9997 18.7356C27.8231 18.7356 25.7357 19.6003 24.1966 21.1394C22.6575 22.6784 21.7929 24.7659 21.7929 26.9425C21.7929 29.1191 22.6575 31.2065 24.1966 32.7456C25.7357 34.2847 27.8231 35.1493 29.9997 35.1493ZM29.9997 37.8849C32.9018 37.8849 35.6851 36.7321 37.7372 34.68C39.7893 32.6279 40.9422 29.8446 40.9422 26.9425C40.9422 24.0403 39.7893 21.2571 37.7372 19.205C35.6851 17.1529 32.9018 16 29.9997 16C27.0976 16 24.3143 17.1529 22.2622 19.205C20.2101 21.2571 19.0573 24.0403 19.0573 26.9425C19.0573 29.8446 20.2101 32.6279 22.2622 34.68C24.3143 36.7321 27.0976 37.8849 29.9997 37.8849Z" fill="#3577D5"/>
<circle cx="30" cy="30" r="29.5" stroke="#CDD8FF"/>
</svg>
