<svg width="24" height="24" viewBox="0 0 24 24" fill="none" xmlns="http://www.w3.org/2000/svg">
<g clip-path="url(#clip0_12135_7097)">
<path d="M21.4141 0H2.58599C1.16015 0 0 1.15997 0 2.58599V17.6484C0 19.0742 1.16015 20.2344 2.58599 20.2344H6.53685L3.97155 22.7997C3.69708 23.0742 3.69708 23.5195 3.97155 23.794C4.10888 23.9313 4.28887 24 4.46868 24C4.64867 24 4.82867 23.9313 4.96599 23.794L8.52556 20.2344H15.4744L19.034 23.794C19.1713 23.9313 19.3513 24 19.5311 24C19.7111 24 19.8911 23.9313 20.0284 23.794C20.3029 23.5195 20.3029 23.0744 20.0284 22.7997L17.4629 20.2344H21.414C22.8398 20.2344 23.9998 19.0742 23.9998 17.6484V2.58599C24 1.15997 22.84 0 21.4141 0ZM22.5937 17.6484C22.5937 18.299 22.0645 18.8281 21.4141 18.8281H2.58599C1.93542 18.8281 1.40625 18.299 1.40625 17.6484V2.58599C1.40625 1.93542 1.93542 1.40625 2.58599 1.40625H21.4141C22.0645 1.40625 22.5937 1.93542 22.5937 2.58599V17.6484Z" fill="#019934"/>
<path d="M16.8702 9.50826L9.33887 5.16006C9.12115 5.03445 8.85327 5.03445 8.63574 5.16006C8.41821 5.28567 8.28418 5.51785 8.28418 5.76907V14.4653C8.28418 14.7165 8.41821 14.9485 8.63574 15.0743C8.74451 15.1371 8.8659 15.1684 8.9873 15.1684C9.1087 15.1684 9.2301 15.1371 9.33887 15.0743L16.8702 10.7259C17.0877 10.6003 17.2217 10.3683 17.2217 10.1171C17.2217 9.86587 17.0877 9.63369 16.8702 9.50826ZM9.69043 13.2475V6.9869L15.1124 10.1171L9.69043 13.2475Z" fill="#019934"/>
</g>
<defs>
<clipPath id="clip0_12135_7097">
<rect width="24" height="24" fill="white"/>
</clipPath>
</defs>
</svg>
