<svg width="24" height="24" viewBox="0 0 24 24" fill="none" xmlns="http://www.w3.org/2000/svg">
<g clip-path="url(#clip0_12135_7105)">
<path d="M10.2932 13.7063C10.0715 13.4847 9.97532 13.167 10.0368 12.8596L10.5883 10.1018C10.6976 9.55551 10.9636 9.05856 11.3575 8.66467L19.1988 0.823436C20.2953 -0.273177 22.0796 -0.273177 23.1762 0.823436C24.2753 1.92253 24.2754 3.70158 23.1762 4.80082L15.3349 12.642C14.9409 13.0359 14.444 13.3019 13.8978 13.4112L11.1399 13.9627C10.8282 14.025 10.5117 13.9249 10.2932 13.7063ZM20.5245 2.14922L12.6833 9.99045C12.552 10.1217 12.4634 10.2874 12.427 10.4695L12.1512 11.8484L13.53 11.5726C13.7121 11.5362 13.8778 11.4475 14.0091 11.3162L21.8503 3.47499C22.2167 3.10863 22.2168 2.51567 21.8503 2.14922C21.484 1.7828 20.891 1.7828 20.5245 2.14922Z" fill="#019934"/>
<path d="M4.68738 23.9991C4.16961 23.9991 3.7499 23.5794 3.7499 23.0616V22.03C1.61307 21.5944 0 19.7004 0 17.4368V8.06202C0 5.47739 2.10276 3.37463 4.68738 3.37463H11.3575C11.8752 3.37463 12.295 3.79434 12.295 4.31211C12.295 4.82988 11.8752 5.24959 11.3575 5.24959H4.68738C3.13661 5.24959 1.87495 6.51124 1.87495 8.06202V17.4368C1.87495 18.9876 3.13661 20.2492 4.68738 20.2492C5.20515 20.2492 5.62486 20.6689 5.62486 21.1867V21.9625C6.23656 21.7434 6.76066 21.3101 7.10691 20.7151C7.27481 20.4267 7.58339 20.2492 7.91717 20.2492H19.312C20.8628 20.2492 22.1244 18.9876 22.1244 17.4368V8.51632C22.1244 7.99855 22.5441 7.57884 23.0619 7.57884C23.5797 7.57884 23.9994 7.99855 23.9994 8.51632V17.4368C23.9994 20.0214 21.8966 22.1242 19.312 22.1242H8.41788C7.53759 23.2925 6.15327 23.9991 4.68738 23.9991Z" fill="#019934"/>
<path d="M17.8121 18.3742H4.68748C4.16971 18.3742 3.75 17.9545 3.75 17.4367C3.75 16.919 4.16971 16.4993 4.68748 16.4993H17.8121C18.3299 16.4993 18.7496 16.919 18.7496 17.4367C18.7496 17.9545 18.3299 18.3742 17.8121 18.3742Z" fill="#019934"/>
<path d="M6.56243 14.6243H4.68748C4.16971 14.6243 3.75 14.2046 3.75 13.6869C3.75 13.1691 4.16971 12.7494 4.68748 12.7494H6.56243C7.0802 12.7494 7.4999 13.1691 7.4999 13.6869C7.4999 14.2046 7.0802 14.6243 6.56243 14.6243Z" fill="#019934"/>
<path d="M6.56243 10.8743H4.68748C4.16971 10.8743 3.75 10.4546 3.75 9.93687C3.75 9.4191 4.16971 8.99939 4.68748 8.99939H6.56243C7.0802 8.99939 7.4999 9.4191 7.4999 9.93687C7.4999 10.4546 7.0802 10.8743 6.56243 10.8743Z" fill="#019934"/>
</g>
<defs>
<clipPath id="clip0_12135_7105">
<rect width="24" height="24" fill="white"/>
</clipPath>
</defs>
</svg>
