<svg width="24" height="24" viewBox="0 0 24 24" fill="none" xmlns="http://www.w3.org/2000/svg">
<path d="M4.435 4.65395e-06C3.451 4.65395e-06 2.617 0.738004 2.515 1.725C2.367 3.133 2.125 5.682 2.125 7.25C2.125 8.73 2.803 10.052 3.862 10.922C4.21 11.208 4.375 11.522 4.375 11.786V12.448L4.374 12.495C4.333 13.094 3.875 19.782 3.875 21C3.875 21.394 3.9526 21.7841 4.10336 22.1481C4.25413 22.512 4.4751 22.8427 4.75368 23.1213C5.03226 23.3999 5.36297 23.6209 5.72695 23.7716C6.09093 23.9224 6.48103 24 6.875 24C7.26897 24 7.65907 23.9224 8.02305 23.7716C8.38703 23.6209 8.71774 23.3999 8.99632 23.1213C9.2749 22.8427 9.49587 22.512 9.64664 22.1481C9.7974 21.7841 9.875 21.394 9.875 21C9.875 19.782 9.418 13.094 9.376 12.495L9.375 12.448V11.786C9.375 11.521 9.54 11.208 9.888 10.922C10.4316 10.4769 10.8694 9.91657 11.1698 9.2815C11.4702 8.64644 11.6257 7.95254 11.625 7.25C11.625 5.682 11.383 3.133 11.235 1.725C11.185 1.25091 10.9611 0.812164 10.6065 0.49356C10.2519 0.174956 9.79172 -0.000889993 9.315 4.65395e-06C8.858 4.65395e-06 8.437 0.158005 8.105 0.423005C7.75358 0.148897 7.32068 2.01439e-05 6.875 4.65395e-06C6.42932 2.01439e-05 5.99642 0.148897 5.645 0.423005C5.30163 0.148274 4.87474 -0.00096068 4.435 4.65395e-06ZM6.375 2C6.375 1.8674 6.42768 1.74022 6.52145 1.64645C6.61521 1.55268 6.74239 1.5 6.875 1.5C7.00761 1.5 7.13479 1.55268 7.22855 1.64645C7.32232 1.74022 7.375 1.8674 7.375 2V7.25C7.375 7.44892 7.45402 7.63968 7.59467 7.78033C7.73532 7.92099 7.92609 8 8.125 8C8.32391 8 8.51468 7.92099 8.65533 7.78033C8.79598 7.63968 8.875 7.44892 8.875 7.25V1.94C8.875 1.82331 8.92136 1.71139 9.00387 1.62888C9.08639 1.54636 9.1983 1.5 9.315 1.5C9.54 1.5 9.722 1.667 9.744 1.881C9.892 3.301 10.125 5.773 10.125 7.25C10.1257 7.73086 10.0194 8.20585 9.81373 8.64051C9.60807 9.07517 9.30825 9.45861 8.936 9.763C8.398 10.205 7.875 10.903 7.875 11.786V12.448C7.875 12.498 7.876 12.544 7.88 12.598C7.924 13.243 8.375 19.849 8.375 21C8.375 21.3978 8.21696 21.7794 7.93566 22.0607C7.65436 22.342 7.27282 22.5 6.875 22.5C6.47717 22.5 6.09564 22.342 5.81434 22.0607C5.53303 21.7794 5.375 21.3978 5.375 21C5.375 19.85 5.825 13.243 5.87 12.598C5.874 12.544 5.875 12.498 5.875 12.448V11.786C5.875 10.902 5.352 10.205 4.814 9.763C4.44175 9.45861 4.14192 9.07517 3.93627 8.64051C3.73061 8.20585 3.62429 7.73086 3.625 7.25C3.625 5.773 3.858 3.302 4.006 1.881C4.01742 1.77556 4.06767 1.67814 4.14697 1.60771C4.22627 1.53729 4.32895 1.49889 4.435 1.5C4.55169 1.5 4.66361 1.54636 4.74613 1.62888C4.82864 1.71139 4.875 1.82331 4.875 1.94V7.25C4.875 7.44892 4.95402 7.63968 5.09467 7.78033C5.23532 7.92099 5.42609 8 5.625 8C5.82391 8 6.01468 7.92099 6.15533 7.78033C6.29598 7.63968 6.375 7.44892 6.375 7.25V2ZM19.875 1.506V11.25C19.875 11.6 19.969 13.247 20.073 15.06L20.079 15.165C20.219 17.601 20.375 20.33 20.375 21C20.375 21.3978 20.217 21.7794 19.9357 22.0607C19.6544 22.342 19.2728 22.5 18.875 22.5C18.4772 22.5 18.0956 22.342 17.8143 22.0607C17.533 21.7794 17.375 21.3978 17.375 21C17.375 20.405 17.498 17.997 17.624 15.7C17.6977 14.3539 17.7737 13.0079 17.852 11.662L17.874 11.294L17.875 11.25C17.875 11.0511 17.796 10.8603 17.6553 10.7197C17.5147 10.579 17.3239 10.5 17.125 10.5H15.125C15.0587 10.5 14.9951 10.4737 14.9482 10.4268C14.9013 10.3799 14.875 10.3163 14.875 10.25V6.75C14.875 5.40091 15.3944 4.10359 16.3253 3.12719C17.2563 2.15079 18.5274 1.57025 19.875 1.506ZM16.33 12L16.298 12.556C16.251 13.373 16.188 14.476 16.126 15.618C16.002 17.885 15.875 20.352 15.875 21C15.875 21.394 15.9526 21.7841 16.1034 22.1481C16.2541 22.512 16.4751 22.8427 16.7537 23.1213C17.0323 23.3999 17.363 23.6209 17.7269 23.7716C18.0909 23.9224 18.481 24 18.875 24C19.269 24 19.6591 23.9224 20.023 23.7716C20.387 23.6209 20.7177 23.3999 20.9963 23.1213C21.2749 22.8427 21.4959 22.512 21.6466 22.1481C21.7974 21.7841 21.875 21.394 21.875 21C21.875 20.279 21.717 17.526 21.581 15.145L21.577 15.079C21.468 13.18 21.375 11.55 21.375 11.25V0.750005C21.375 0.551092 21.296 0.360327 21.1553 0.219674C21.0147 0.0790222 20.8239 4.65395e-06 20.625 4.65395e-06H20.125C18.3348 4.65395e-06 16.6179 0.711163 15.352 1.97703C14.0862 3.2429 13.375 4.95979 13.375 6.75V10.25C13.375 11.216 14.159 12 15.125 12H16.33Z" fill="#019934"/>
</svg>
