<svg width="22" height="24" viewBox="0 0 22 24" fill="none" xmlns="http://www.w3.org/2000/svg">
<path d="M14.6177 11.1284C16.1533 10.0084 17.1534 8.19581 17.1534 6.15384C17.1534 2.76061 14.3928 0 10.9995 0C7.6063 0 4.84569 2.76061 4.84569 6.15384C4.84569 8.19581 5.84567 10.0084 7.38139 11.1284C3.56389 12.5892 0.845703 16.2905 0.845703 20.6154C0.845703 22.4817 2.36403 24 4.23031 24H17.7687C19.635 24 21.1534 22.4817 21.1534 20.6154C21.1534 16.2905 18.4352 12.5892 14.6177 11.1284ZM6.69186 6.15384C6.69186 3.77859 8.62428 1.84617 10.9995 1.84617C13.3748 1.84617 15.3072 3.77859 15.3072 6.15384C15.3072 8.52909 13.3748 10.4616 10.9995 10.4616C8.62428 10.4616 6.69186 8.52909 6.69186 6.15384ZM17.7687 22.1538H4.23031C3.38202 22.1538 2.69187 21.4637 2.69187 20.6153C2.69187 16.0344 6.41863 12.3076 10.9996 12.3076C15.5805 12.3076 19.3073 16.0344 19.3073 20.6153C19.3072 21.4637 18.6171 22.1538 17.7687 22.1538Z" fill="#019934"/>
</svg>
