<svg width="24" height="24" viewBox="0 0 24 24" fill="none" xmlns="http://www.w3.org/2000/svg">
<g clip-path="url(#clip0_12135_7132)">
<path d="M2.54688 0V24H16.5412L21.4531 19.0881V0L2.54688 0ZM3.95312 1.40625H20.0469V17.7969H15.25V22.5938H3.95308L3.95312 1.40625ZM19.3493 19.2031L16.6562 21.8962V19.2031H19.3493Z" fill="#019934"/>
<path d="M9 4.29688H15V5.70312H9V4.29688Z" fill="#019934"/>
<path d="M6.25 7.79688H17.75V9.20312H6.25V7.79688Z" fill="#019934"/>
<path d="M6.25 10.7969H17.75V12.2031H6.25V10.7969Z" fill="#019934"/>
<path d="M6.25 13.7969H17.75V15.2031H6.25V13.7969Z" fill="#019934"/>
<path d="M6.25 17.7969H7.72652V19.2031H6.25V17.7969Z" fill="#019934"/>
<path d="M9.13281 17.7969H12.0001V19.2031H9.13281V17.7969Z" fill="#019934"/>
</g>
<defs>
<clipPath id="clip0_12135_7132">
<rect width="24" height="24" fill="white"/>
</clipPath>
</defs>
</svg>
