<svg width="181" height="46" viewBox="0 0 181 46" fill="none" xmlns="http://www.w3.org/2000/svg">
<path d="M5.52629 13.59C5.52629 14.61 5.64629 15.53 5.88629 16.35C6.14629 17.17 6.50629 17.88 6.96629 18.48C7.44629 19.06 8.02629 19.51 8.70629 19.83C9.38629 20.15 10.1663 20.31 11.0463 20.31C11.9063 20.31 12.6763 20.15 13.3563 19.83C14.0563 19.51 14.6363 19.06 15.0963 18.48C15.5763 17.88 15.9363 17.17 16.1763 16.35C16.4363 15.53 16.5663 14.61 16.5663 13.59C16.5663 12.57 16.4363 11.65 16.1763 10.83C15.9363 9.99 15.5763 9.28 15.0963 8.7C14.6363 8.1 14.0563 7.64 13.3563 7.32C12.6763 7 11.9063 6.84 11.0463 6.84C10.1663 6.84 9.38629 7.01 8.70629 7.35C8.02629 7.67 7.44629 8.13 6.96629 8.73C6.50629 9.31 6.14629 10.02 5.88629 10.86C5.64629 11.68 5.52629 12.59 5.52629 13.59ZM21.3963 13.59C21.3963 15.37 21.1263 16.94 20.5863 18.3C20.0663 19.64 19.3463 20.77 18.4263 21.69C17.5063 22.59 16.4063 23.27 15.1263 23.73C13.8663 24.19 12.5063 24.42 11.0463 24.42C9.62629 24.42 8.28629 24.19 7.02629 23.73C5.76629 23.27 4.66629 22.59 3.72629 21.69C2.78629 20.77 2.04629 19.64 1.50629 18.3C0.966289 16.94 0.696289 15.37 0.696289 13.59C0.696289 11.81 0.976289 10.25 1.53629 8.91C2.09629 7.55 2.84629 6.41 3.78629 5.49C4.74629 4.57 5.84629 3.88 7.08629 3.42C8.34629 2.96 9.66629 2.73 11.0463 2.73C12.4663 2.73 13.8063 2.96 15.0663 3.42C16.3263 3.88 17.4263 4.57 18.3663 5.49C19.3063 6.41 20.0463 7.55 20.5863 8.91C21.1263 10.25 21.3963 11.81 21.3963 13.59ZM33.6675 15.63C33.6675 14.19 33.4775 13.17 33.0975 12.57C32.7375 11.97 32.1075 11.67 31.2075 11.67C30.9275 11.67 30.6375 11.69 30.3375 11.73C30.0375 11.75 29.7475 11.78 29.4675 11.82V24H24.9975V8.76C25.3775 8.66 25.8175 8.56 26.3175 8.46C26.8375 8.34 27.3775 8.24 27.9375 8.16C28.5175 8.06 29.1075 7.99 29.7075 7.95C30.3075 7.89 30.8975 7.86 31.4775 7.86C32.6175 7.86 33.5375 8.01 34.2375 8.31C34.9575 8.59 35.5475 8.93 36.0075 9.33C36.6475 8.87 37.3775 8.51 38.1975 8.25C39.0375 7.99 39.8075 7.86 40.5075 7.86C41.7675 7.86 42.7975 8.04 43.5975 8.4C44.4175 8.74 45.0675 9.23 45.5475 9.87C46.0275 10.51 46.3575 11.27 46.5375 12.15C46.7175 13.03 46.8075 14.01 46.8075 15.09V24H42.3375V15.63C42.3375 14.19 42.1475 13.17 41.7675 12.57C41.4075 11.97 40.7775 11.67 39.8775 11.67C39.6375 11.67 39.2975 11.73 38.8575 11.85C38.4375 11.97 38.0875 12.12 37.8075 12.3C37.9475 12.76 38.0375 13.25 38.0775 13.77C38.1175 14.27 38.1375 14.81 38.1375 15.39V24H33.6675V15.63ZM50.8666 8.76C51.6266 8.54 52.6066 8.34 53.8066 8.16C55.0066 7.96 56.2666 7.86 57.5866 7.86C58.9266 7.86 60.0366 8.04 60.9166 8.4C61.8166 8.74 62.5266 9.23 63.0466 9.87C63.5666 10.51 63.9366 11.27 64.1566 12.15C64.3766 13.03 64.4866 14.01 64.4866 15.09V24H60.0166V15.63C60.0166 14.19 59.8266 13.17 59.4466 12.57C59.0666 11.97 58.3566 11.67 57.3166 11.67C56.9966 11.67 56.6566 11.69 56.2966 11.73C55.9366 11.75 55.6166 11.78 55.3366 11.82V24H50.8666V8.76ZM73.0026 24H68.5326V8.22H73.0026V24ZM73.4226 3.66C73.4226 4.48 73.1526 5.13 72.6126 5.61C72.0926 6.07 71.4726 6.3 70.7526 6.3C70.0326 6.3 69.4026 6.07 68.8626 5.61C68.3426 5.13 68.0826 4.48 68.0826 3.66C68.0826 2.84 68.3426 2.2 68.8626 1.74C69.4026 1.26 70.0326 1.02 70.7526 1.02C71.4726 1.02 72.0926 1.26 72.6126 1.74C73.1526 2.2 73.4226 2.84 73.4226 3.66ZM75.8545 13.02H84.5545V17.07H75.8545V13.02ZM91.6898 24C90.6698 22 89.6298 19.66 88.5698 16.98C87.5298 14.3 86.5398 11.38 85.5998 8.22H90.3398C90.5398 9 90.7698 9.85 91.0298 10.77C91.3098 11.67 91.5898 12.59 91.8698 13.53C92.1698 14.45 92.4598 15.35 92.7398 16.23C93.0398 17.11 93.3298 17.91 93.6098 18.63C93.8698 17.91 94.1498 17.11 94.4498 16.23C94.7498 15.35 95.0398 14.45 95.3198 13.53C95.6198 12.59 95.8998 11.67 96.1598 10.77C96.4398 9.85 96.6798 9 96.8798 8.22H101.5C100.56 11.38 99.5598 14.3 98.4998 16.98C97.4598 19.66 96.4298 22 95.4098 24H91.6898ZM108.364 24H103.894V8.22H108.364V24ZM108.784 3.66C108.784 4.48 108.514 5.13 107.974 5.61C107.454 6.07 106.834 6.3 106.114 6.3C105.394 6.3 104.764 6.07 104.224 5.61C103.704 5.13 103.444 4.48 103.444 3.66C103.444 2.84 103.704 2.2 104.224 1.74C104.764 1.26 105.394 1.02 106.114 1.02C106.834 1.02 107.454 1.26 107.974 1.74C108.514 2.2 108.784 2.84 108.784 3.66ZM118.866 24.3C117.566 24.28 116.506 24.14 115.686 23.88C114.886 23.62 114.246 23.26 113.766 22.8C113.306 22.32 112.986 21.75 112.806 21.09C112.646 20.41 112.566 19.65 112.566 18.81V1.44L117.036 0.719999V17.91C117.036 18.31 117.066 18.67 117.126 18.99C117.186 19.31 117.296 19.58 117.456 19.8C117.636 20.02 117.886 20.2 118.206 20.34C118.526 20.48 118.956 20.57 119.496 20.61L118.866 24.3ZM128.358 24.3C127.058 24.28 125.998 24.14 125.178 23.88C124.378 23.62 123.738 23.26 123.258 22.8C122.798 22.32 122.478 21.75 122.298 21.09C122.138 20.41 122.058 19.65 122.058 18.81V1.44L126.528 0.719999V17.91C126.528 18.31 126.558 18.67 126.618 18.99C126.678 19.31 126.788 19.58 126.948 19.8C127.128 20.02 127.378 20.2 127.698 20.34C128.018 20.48 128.448 20.57 128.988 20.61L128.358 24.3ZM138.02 20.88C138.46 20.88 138.88 20.87 139.28 20.85C139.68 20.83 140 20.8 140.24 20.76V17.37C140.06 17.33 139.79 17.29 139.43 17.25C139.07 17.21 138.74 17.19 138.44 17.19C138.02 17.19 137.62 17.22 137.24 17.28C136.88 17.32 136.56 17.41 136.28 17.55C136 17.69 135.78 17.88 135.62 18.12C135.46 18.36 135.38 18.66 135.38 19.02C135.38 19.72 135.61 20.21 136.07 20.49C136.55 20.75 137.2 20.88 138.02 20.88ZM137.66 7.8C138.98 7.8 140.08 7.95 140.96 8.25C141.84 8.55 142.54 8.98 143.06 9.54C143.6 10.1 143.98 10.78 144.2 11.58C144.42 12.38 144.53 13.27 144.53 14.25V23.55C143.89 23.69 143 23.85 141.86 24.03C140.72 24.23 139.34 24.33 137.72 24.33C136.7 24.33 135.77 24.24 134.93 24.06C134.11 23.88 133.4 23.59 132.8 23.19C132.2 22.77 131.74 22.23 131.42 21.57C131.1 20.91 130.94 20.1 130.94 19.14C130.94 18.22 131.12 17.44 131.48 16.8C131.86 16.16 132.36 15.65 132.98 15.27C133.6 14.89 134.31 14.62 135.11 14.46C135.91 14.28 136.74 14.19 137.6 14.19C138.18 14.19 138.69 14.22 139.13 14.28C139.59 14.32 139.96 14.38 140.24 14.46V14.04C140.24 13.28 140.01 12.67 139.55 12.21C139.09 11.75 138.29 11.52 137.15 11.52C136.39 11.52 135.64 11.58 134.9 11.7C134.16 11.8 133.52 11.95 132.98 12.15L132.41 8.55C132.67 8.47 132.99 8.39 133.37 8.31C133.77 8.21 134.2 8.13 134.66 8.07C135.12 7.99 135.6 7.93 136.1 7.89C136.62 7.83 137.14 7.8 137.66 7.8ZM152.382 15.6C152.382 18.1 153.392 19.35 155.412 19.35C155.872 19.35 156.302 19.29 156.702 19.17C157.102 19.05 157.442 18.91 157.722 18.75V11.61C157.502 11.57 157.242 11.54 156.942 11.52C156.642 11.48 156.292 11.46 155.892 11.46C154.712 11.46 153.832 11.85 153.252 12.63C152.672 13.41 152.382 14.4 152.382 15.6ZM162.192 22.02C162.192 24.6 161.532 26.51 160.212 27.75C158.912 29.01 156.892 29.64 154.152 29.64C153.192 29.64 152.232 29.55 151.272 29.37C150.312 29.21 149.422 28.99 148.602 28.71L149.382 24.96C150.082 25.24 150.812 25.46 151.572 25.62C152.352 25.78 153.232 25.86 154.212 25.86C155.492 25.86 156.392 25.58 156.912 25.02C157.452 24.46 157.722 23.74 157.722 22.86V22.29C157.242 22.51 156.742 22.68 156.222 22.8C155.722 22.9 155.172 22.95 154.572 22.95C152.392 22.95 150.722 22.31 149.562 21.03C148.402 19.73 147.822 17.92 147.822 15.6C147.822 14.44 148.002 13.39 148.362 12.45C148.722 11.49 149.242 10.67 149.922 9.99C150.622 9.31 151.472 8.79 152.472 8.43C153.472 8.05 154.602 7.86 155.862 7.86C156.402 7.86 156.952 7.89 157.512 7.95C158.092 7.99 158.662 8.05 159.222 8.13C159.782 8.21 160.312 8.31 160.812 8.43C161.332 8.53 161.792 8.64 162.192 8.76V22.02ZM165.634 16.23C165.634 14.83 165.844 13.61 166.264 12.57C166.704 11.51 167.274 10.63 167.974 9.93C168.674 9.23 169.474 8.7 170.374 8.34C171.294 7.98 172.234 7.8 173.194 7.8C175.434 7.8 177.204 8.49 178.504 9.87C179.804 11.23 180.454 13.24 180.454 15.9C180.454 16.16 180.444 16.45 180.424 16.77C180.404 17.07 180.384 17.34 180.364 17.58H170.224C170.324 18.5 170.754 19.23 171.514 19.77C172.274 20.31 173.294 20.58 174.574 20.58C175.394 20.58 176.194 20.51 176.974 20.37C177.774 20.21 178.424 20.02 178.924 19.8L179.524 23.43C179.284 23.55 178.964 23.67 178.564 23.79C178.164 23.91 177.714 24.01 177.214 24.09C176.734 24.19 176.214 24.27 175.654 24.33C175.094 24.39 174.534 24.42 173.974 24.42C172.554 24.42 171.314 24.21 170.254 23.79C169.214 23.37 168.344 22.8 167.644 22.08C166.964 21.34 166.454 20.47 166.114 19.47C165.794 18.47 165.634 17.39 165.634 16.23ZM176.134 14.52C176.114 14.14 176.044 13.77 175.924 13.41C175.824 13.05 175.654 12.73 175.414 12.45C175.194 12.17 174.904 11.94 174.544 11.76C174.204 11.58 173.774 11.49 173.254 11.49C172.754 11.49 172.324 11.58 171.964 11.76C171.604 11.92 171.304 12.14 171.064 12.42C170.824 12.7 170.634 13.03 170.494 13.41C170.374 13.77 170.284 14.14 170.224 14.52H176.134ZM11.9745 43.349C12.0698 43.3577 12.1781 43.3663 12.2995 43.375C12.4295 43.375 12.5811 43.375 12.7545 43.375C13.7685 43.375 14.5181 43.1193 15.0035 42.608C15.4975 42.0967 15.7445 41.3903 15.7445 40.489C15.7445 39.5443 15.5105 38.8293 15.0425 38.344C14.5745 37.8587 13.8335 37.616 12.8195 37.616C12.6808 37.616 12.5378 37.6203 12.3905 37.629C12.2431 37.629 12.1045 37.6377 11.9745 37.655V43.349ZM17.8375 40.489C17.8375 41.269 17.7161 41.9493 17.4735 42.53C17.2308 43.1107 16.8841 43.5917 16.4335 43.973C15.9915 44.3543 15.4498 44.6403 14.8085 44.831C14.1671 45.0217 13.4478 45.117 12.6505 45.117C12.2865 45.117 11.8618 45.0997 11.3765 45.065C10.8911 45.039 10.4145 44.9783 9.94646 44.883V36.108C10.4145 36.0213 10.8998 35.965 11.4025 35.939C11.9138 35.9043 12.3515 35.887 12.7155 35.887C13.4868 35.887 14.1845 35.9737 14.8085 36.147C15.4411 36.3203 15.9828 36.5933 16.4335 36.966C16.8841 37.3387 17.2308 37.8153 17.4735 38.396C17.7161 38.9767 17.8375 39.6743 17.8375 40.489ZM28.6133 45C28.518 44.688 28.4097 44.3673 28.2883 44.038C28.1757 43.7087 28.063 43.3793 27.9503 43.05H24.4403C24.3277 43.3793 24.2107 43.7087 24.0893 44.038C23.9767 44.3673 23.8727 44.688 23.7773 45H21.6713C22.0093 44.0293 22.33 43.1323 22.6333 42.309C22.9367 41.4857 23.2313 40.71 23.5173 39.982C23.812 39.254 24.098 38.565 24.3753 37.915C24.6613 37.2563 24.956 36.615 25.2593 35.991H27.1963C27.491 36.615 27.7813 37.2563 28.0673 37.915C28.3533 38.565 28.6393 39.254 28.9253 39.982C29.22 40.71 29.519 41.4857 29.8223 42.309C30.1257 43.1323 30.4463 44.0293 30.7843 45H28.6133ZM26.1823 38.032C26.139 38.162 26.074 38.3397 25.9873 38.565C25.9007 38.7903 25.801 39.0503 25.6883 39.345C25.5757 39.6397 25.45 39.9647 25.3113 40.32C25.1813 40.6753 25.047 41.048 24.9083 41.438H27.4693C27.3307 41.048 27.1963 40.6753 27.0663 40.32C26.9363 39.9647 26.8107 39.6397 26.6893 39.345C26.5767 39.0503 26.477 38.7903 26.3903 38.565C26.3037 38.3397 26.2343 38.162 26.1823 38.032ZM40.9461 35.991V37.72H38.2291V45H36.2011V37.72H33.4841V35.991H40.9461ZM50.595 45C50.4997 44.688 50.3914 44.3673 50.27 44.038C50.1574 43.7087 50.0447 43.3793 49.932 43.05H46.422C46.3094 43.3793 46.1924 43.7087 46.071 44.038C45.9584 44.3673 45.8544 44.688 45.759 45H43.653C43.991 44.0293 44.3117 43.1323 44.615 42.309C44.9184 41.4857 45.213 40.71 45.499 39.982C45.7937 39.254 46.0797 38.565 46.357 37.915C46.643 37.2563 46.9377 36.615 47.241 35.991H49.178C49.4727 36.615 49.763 37.2563 50.049 37.915C50.335 38.565 50.621 39.254 50.907 39.982C51.2017 40.71 51.5007 41.4857 51.804 42.309C52.1074 43.1323 52.428 44.0293 52.766 45H50.595ZM48.164 38.032C48.1207 38.162 48.0557 38.3397 47.969 38.565C47.8824 38.7903 47.7827 39.0503 47.67 39.345C47.5574 39.6397 47.4317 39.9647 47.293 40.32C47.163 40.6753 47.0287 41.048 46.89 41.438H49.451C49.3124 41.048 49.178 40.6753 49.048 40.32C48.918 39.9647 48.7924 39.6397 48.671 39.345C48.5584 39.0503 48.4587 38.7903 48.372 38.565C48.2854 38.3397 48.216 38.162 48.164 38.032ZM65.8432 43.349C65.9385 43.3577 66.0469 43.3663 66.1682 43.375C66.2982 43.375 66.4499 43.375 66.6232 43.375C67.6372 43.375 68.3869 43.1193 68.8722 42.608C69.3662 42.0967 69.6132 41.3903 69.6132 40.489C69.6132 39.5443 69.3792 38.8293 68.9112 38.344C68.4432 37.8587 67.7022 37.616 66.6882 37.616C66.5495 37.616 66.4065 37.6203 66.2592 37.629C66.1119 37.629 65.9732 37.6377 65.8432 37.655V43.349ZM71.7062 40.489C71.7062 41.269 71.5849 41.9493 71.3422 42.53C71.0995 43.1107 70.7529 43.5917 70.3022 43.973C69.8602 44.3543 69.3185 44.6403 68.6772 44.831C68.0359 45.0217 67.3165 45.117 66.5192 45.117C66.1552 45.117 65.7305 45.0997 65.2452 45.065C64.7599 45.039 64.2832 44.9783 63.8152 44.883V36.108C64.2832 36.0213 64.7685 35.965 65.2712 35.939C65.7825 35.9043 66.2202 35.887 66.5842 35.887C67.3555 35.887 68.0532 35.9737 68.6772 36.147C69.3099 36.3203 69.8515 36.5933 70.3022 36.966C70.7529 37.3387 71.0995 37.8153 71.3422 38.396C71.5849 38.9767 71.7062 39.6743 71.7062 40.489ZM82.4821 45C82.3868 44.688 82.2784 44.3673 82.1571 44.038C82.0444 43.7087 81.9318 43.3793 81.8191 43.05H78.3091C78.1964 43.3793 78.0794 43.7087 77.9581 44.038C77.8454 44.3673 77.7414 44.688 77.6461 45H75.5401C75.8781 44.0293 76.1988 43.1323 76.5021 42.309C76.8054 41.4857 77.1001 40.71 77.3861 39.982C77.6808 39.254 77.9668 38.565 78.2441 37.915C78.5301 37.2563 78.8248 36.615 79.1281 35.991H81.0651C81.3598 36.615 81.6501 37.2563 81.9361 37.915C82.2221 38.565 82.5081 39.254 82.7941 39.982C83.0888 40.71 83.3878 41.4857 83.6911 42.309C83.9944 43.1323 84.3151 44.0293 84.6531 45H82.4821ZM80.0511 38.032C80.0078 38.162 79.9428 38.3397 79.8561 38.565C79.7694 38.7903 79.6698 39.0503 79.5571 39.345C79.4444 39.6397 79.3188 39.9647 79.1801 40.32C79.0501 40.6753 78.9158 41.048 78.7771 41.438H81.3381C81.1994 41.048 81.0651 40.6753 80.9351 40.32C80.8051 39.9647 80.6794 39.6397 80.5581 39.345C80.4454 39.0503 80.3458 38.7903 80.2591 38.565C80.1724 38.3397 80.1031 38.162 80.0511 38.032ZM91.8975 43.453C92.1835 43.453 92.4175 43.4313 92.5995 43.388C92.7901 43.336 92.9418 43.271 93.0545 43.193C93.1671 43.1063 93.2451 43.0067 93.2885 42.894C93.3318 42.7813 93.3535 42.6557 93.3535 42.517C93.3535 42.2223 93.2148 41.9797 92.9375 41.789C92.6601 41.5897 92.1835 41.3773 91.5075 41.152C91.2128 41.048 90.9181 40.931 90.6235 40.801C90.3288 40.6623 90.0645 40.4933 89.8305 40.294C89.5965 40.086 89.4058 39.839 89.2585 39.553C89.1111 39.2583 89.0375 38.903 89.0375 38.487C89.0375 38.071 89.1155 37.6983 89.2715 37.369C89.4275 37.031 89.6485 36.745 89.9345 36.511C90.2205 36.277 90.5671 36.0993 90.9745 35.978C91.3818 35.848 91.8411 35.783 92.3525 35.783C92.9591 35.783 93.4835 35.848 93.9255 35.978C94.3675 36.108 94.7315 36.251 95.0175 36.407L94.4325 38.006C94.1811 37.876 93.8995 37.7633 93.5875 37.668C93.2841 37.564 92.9158 37.512 92.4825 37.512C91.9971 37.512 91.6461 37.5813 91.4295 37.72C91.2215 37.85 91.1175 38.0537 91.1175 38.331C91.1175 38.4957 91.1565 38.6343 91.2345 38.747C91.3125 38.8597 91.4208 38.9637 91.5595 39.059C91.7068 39.1457 91.8715 39.228 92.0535 39.306C92.2441 39.3753 92.4521 39.449 92.6775 39.527C93.1455 39.7003 93.5528 39.8737 93.8995 40.047C94.2461 40.2117 94.5321 40.4067 94.7575 40.632C94.9915 40.8573 95.1648 41.1217 95.2775 41.425C95.3901 41.7283 95.4465 42.0967 95.4465 42.53C95.4465 43.3707 95.1518 44.025 94.5625 44.493C93.9731 44.9523 93.0848 45.182 91.8975 45.182C91.4988 45.182 91.1391 45.156 90.8185 45.104C90.4978 45.0607 90.2118 45.0043 89.9605 44.935C89.7178 44.8657 89.5055 44.792 89.3235 44.714C89.1501 44.636 89.0028 44.5623 88.8815 44.493L89.4535 42.881C89.7221 43.0283 90.0515 43.1627 90.4415 43.284C90.8401 43.3967 91.3255 43.453 91.8975 43.453ZM105.821 35.991H107.849V45H105.821V41.178H102.415V45H100.387V35.991H102.415V39.436H105.821V35.991ZM116.317 45.117C115.823 45.117 115.329 45.0997 114.835 45.065C114.349 45.039 113.842 44.9697 113.314 44.857V36.121C113.73 36.043 114.185 35.9867 114.679 35.952C115.173 35.9087 115.632 35.887 116.057 35.887C116.629 35.887 117.153 35.9303 117.63 36.017C118.115 36.095 118.531 36.2337 118.878 36.433C119.224 36.6323 119.493 36.8967 119.684 37.226C119.883 37.5467 119.983 37.9453 119.983 38.422C119.983 39.1413 119.636 39.709 118.943 40.125C119.515 40.3417 119.905 40.6363 120.113 41.009C120.321 41.3817 120.425 41.802 120.425 42.27C120.425 43.2147 120.078 43.9253 119.385 44.402C118.7 44.8787 117.677 45.117 116.317 45.117ZM115.29 41.074V43.401C115.437 43.4183 115.597 43.4313 115.771 43.44C115.944 43.4487 116.135 43.453 116.343 43.453C116.949 43.453 117.439 43.3663 117.812 43.193C118.184 43.0197 118.371 42.699 118.371 42.231C118.371 41.815 118.215 41.5203 117.903 41.347C117.591 41.165 117.144 41.074 116.564 41.074H115.29ZM115.29 39.527H116.278C116.902 39.527 117.348 39.449 117.617 39.293C117.885 39.1283 118.02 38.8683 118.02 38.513C118.02 38.149 117.881 37.8933 117.604 37.746C117.326 37.5987 116.919 37.525 116.382 37.525C116.208 37.525 116.022 37.5293 115.823 37.538C115.623 37.538 115.446 37.5467 115.29 37.564V39.527ZM127.131 40.489C127.131 40.931 127.183 41.3297 127.287 41.685C127.4 42.0403 127.556 42.348 127.755 42.608C127.963 42.8593 128.214 43.0543 128.509 43.193C128.804 43.3317 129.142 43.401 129.523 43.401C129.896 43.401 130.229 43.3317 130.524 43.193C130.827 43.0543 131.079 42.8593 131.278 42.608C131.486 42.348 131.642 42.0403 131.746 41.685C131.859 41.3297 131.915 40.931 131.915 40.489C131.915 40.047 131.859 39.6483 131.746 39.293C131.642 38.929 131.486 38.6213 131.278 38.37C131.079 38.11 130.827 37.9107 130.524 37.772C130.229 37.6333 129.896 37.564 129.523 37.564C129.142 37.564 128.804 37.6377 128.509 37.785C128.214 37.9237 127.963 38.123 127.755 38.383C127.556 38.6343 127.4 38.942 127.287 39.306C127.183 39.6613 127.131 40.0557 127.131 40.489ZM134.008 40.489C134.008 41.2603 133.891 41.9407 133.657 42.53C133.432 43.1107 133.12 43.6003 132.721 43.999C132.322 44.389 131.846 44.6837 131.291 44.883C130.745 45.0823 130.156 45.182 129.523 45.182C128.908 45.182 128.327 45.0823 127.781 44.883C127.235 44.6837 126.758 44.389 126.351 43.999C125.944 43.6003 125.623 43.1107 125.389 42.53C125.155 41.9407 125.038 41.2603 125.038 40.489C125.038 39.7177 125.159 39.0417 125.402 38.461C125.645 37.8717 125.97 37.3777 126.377 36.979C126.793 36.5803 127.27 36.2813 127.807 36.082C128.353 35.8827 128.925 35.783 129.523 35.783C130.138 35.783 130.719 35.8827 131.265 36.082C131.811 36.2813 132.288 36.5803 132.695 36.979C133.102 37.3777 133.423 37.8717 133.657 38.461C133.891 39.0417 134.008 39.7177 134.008 40.489ZM144.781 45C144.685 44.688 144.577 44.3673 144.456 44.038C144.343 43.7087 144.23 43.3793 144.118 43.05H140.608C140.495 43.3793 140.378 43.7087 140.257 44.038C140.144 44.3673 140.04 44.688 139.945 45H137.839C138.177 44.0293 138.497 43.1323 138.801 42.309C139.104 41.4857 139.399 40.71 139.685 39.982C139.979 39.254 140.265 38.565 140.543 37.915C140.829 37.2563 141.123 36.615 141.427 35.991H143.364C143.658 36.615 143.949 37.2563 144.235 37.915C144.521 38.565 144.807 39.254 145.093 39.982C145.387 40.71 145.686 41.4857 145.99 42.309C146.293 43.1323 146.614 44.0293 146.952 45H144.781ZM142.35 38.032C142.306 38.162 142.241 38.3397 142.155 38.565C142.068 38.7903 141.968 39.0503 141.856 39.345C141.743 39.6397 141.617 39.9647 141.479 40.32C141.349 40.6753 141.214 41.048 141.076 41.438H143.637C143.498 41.048 143.364 40.6753 143.234 40.32C143.104 39.9647 142.978 39.6397 142.857 39.345C142.744 39.0503 142.644 38.7903 142.558 38.565C142.471 38.3397 142.402 38.162 142.35 38.032ZM154.137 35.887C155.489 35.887 156.524 36.1297 157.244 36.615C157.963 37.0917 158.323 37.837 158.323 38.851C158.323 39.4837 158.175 39.9993 157.881 40.398C157.595 40.788 157.179 41.0957 156.633 41.321C156.815 41.5463 157.005 41.8063 157.205 42.101C157.404 42.387 157.599 42.6903 157.79 43.011C157.989 43.323 158.18 43.6523 158.362 43.999C158.544 44.337 158.713 44.6707 158.869 45H156.594C156.429 44.7053 156.26 44.4063 156.087 44.103C155.922 43.7997 155.749 43.505 155.567 43.219C155.393 42.933 155.22 42.6643 155.047 42.413C154.873 42.153 154.7 41.919 154.527 41.711H153.526V45H151.498V36.121C151.94 36.0343 152.395 35.9737 152.863 35.939C153.339 35.9043 153.764 35.887 154.137 35.887ZM154.254 37.616C154.106 37.616 153.972 37.6203 153.851 37.629C153.738 37.6377 153.63 37.6463 153.526 37.655V40.099H154.098C154.86 40.099 155.406 40.0037 155.736 39.813C156.065 39.6223 156.23 39.2973 156.23 38.838C156.23 38.396 156.061 38.084 155.723 37.902C155.393 37.7113 154.904 37.616 154.254 37.616ZM165.577 43.349C165.672 43.3577 165.78 43.3663 165.902 43.375C166.032 43.375 166.183 43.375 166.357 43.375C167.371 43.375 168.12 43.1193 168.606 42.608C169.1 42.0967 169.347 41.3903 169.347 40.489C169.347 39.5443 169.113 38.8293 168.645 38.344C168.177 37.8587 167.436 37.616 166.422 37.616C166.283 37.616 166.14 37.6203 165.993 37.629C165.845 37.629 165.707 37.6377 165.577 37.655V43.349ZM171.44 40.489C171.44 41.269 171.318 41.9493 171.076 42.53C170.833 43.1107 170.486 43.5917 170.036 43.973C169.594 44.3543 169.052 44.6403 168.411 44.831C167.769 45.0217 167.05 45.117 166.253 45.117C165.889 45.117 165.464 45.0997 164.979 45.065C164.493 45.039 164.017 44.9783 163.549 44.883V36.108C164.017 36.0213 164.502 35.965 165.005 35.939C165.516 35.9043 165.954 35.887 166.318 35.887C167.089 35.887 167.787 35.9737 168.411 36.147C169.043 36.3203 169.585 36.5933 170.036 36.966C170.486 37.3387 170.833 37.8153 171.076 38.396C171.318 38.9767 171.44 39.6743 171.44 40.489Z" fill="#268C43"/>
</svg>
